<svg width="33" height="20" viewBox="0 0 33 20" fill="none" xmlns="http://www.w3.org/2000/svg">
<path d="M16.5 0C17.7764 0 19.0004 0.508619 19.903 1.41397C20.8055 2.31932 21.3125 3.54723 21.3125 4.82759C21.3125 6.10794 20.8055 7.33586 19.903 8.24121C19.0004 9.14655 17.7764 9.65517 16.5 9.65517C15.2236 9.65517 13.9996 9.14655 13.097 8.24121C12.1945 7.33586 11.6875 6.10794 11.6875 4.82759C11.6875 3.54723 12.1945 2.31932 13.097 1.41397C13.9996 0.508619 15.2236 0 16.5 0ZM6.875 3.44828C7.645 3.44828 8.36 3.65517 8.97875 4.02759C8.7725 6 9.35 7.95862 10.5325 9.48966C9.845 10.8138 8.47 11.7241 6.875 11.7241C5.78098 11.7241 4.73177 11.2882 3.95818 10.5122C3.1846 9.73615 2.75 8.68365 2.75 7.58621C2.75 6.48876 3.1846 5.43626 3.95818 4.66025C4.73177 3.88423 5.78098 3.44828 6.875 3.44828ZM26.125 3.44828C27.219 3.44828 28.2682 3.88423 29.0418 4.66025C29.8154 5.43626 30.25 6.48876 30.25 7.58621C30.25 8.68365 29.8154 9.73615 29.0418 10.5122C28.2682 11.2882 27.219 11.7241 26.125 11.7241C24.53 11.7241 23.155 10.8138 22.4675 9.48966C23.65 7.95862 24.2275 6 24.0212 4.02759C24.64 3.65517 25.355 3.44828 26.125 3.44828ZM7.5625 17.5862C7.5625 14.731 11.5638 12.4138 16.5 12.4138C21.4363 12.4138 25.4375 14.731 25.4375 17.5862V20H7.5625V17.5862ZM0 20V17.931C0 16.0138 2.59875 14.4 6.11875 13.931C5.3075 14.869 4.8125 16.1655 4.8125 17.5862V20H0ZM33 20H28.1875V17.5862C28.1875 16.1655 27.6925 14.869 26.8812 13.931C30.4012 14.4 33 16.0138 33 17.931V20Z" fill="#DDDDDD"/>
</svg>
